<svg width="30" height="30" viewBox="0 0 30 30" fill="none" xmlns="http://www.w3.org/2000/svg">
<path d="M23.4375 26.25H17.6414C18.6166 25.3808 19.5362 24.4512 20.395 23.4667C23.612 19.767 25.3125 15.8668 25.3125 12.1875C25.3125 9.45246 24.226 6.82943 22.292 4.89546C20.3581 2.96149 17.735 1.875 15 1.875C12.265 1.875 9.64193 2.96149 7.70796 4.89546C5.77399 6.82943 4.6875 9.45246 4.6875 12.1875C4.6875 15.8668 6.38798 19.767 9.60503 23.4667C10.4638 24.4512 11.3834 25.3808 12.3586 26.25H6.5625C6.31386 26.25 6.0754 26.3488 5.89959 26.5246C5.72377 26.7004 5.625 26.9389 5.625 27.1875C5.625 27.4361 5.72377 27.6746 5.89959 27.8504C6.0754 28.0262 6.31386 28.125 6.5625 28.125H23.4375C23.6861 28.125 23.9246 28.0262 24.1004 27.8504C24.2762 27.6746 24.375 27.4361 24.375 27.1875C24.375 26.9389 24.2762 26.7004 24.1004 26.5246C23.9246 26.3488 23.6861 26.25 23.4375 26.25ZM15 8.4375C15.7417 8.4375 16.4667 8.65743 17.0834 9.06949C17.7001 9.48154 18.1808 10.0672 18.4646 10.7524C18.7484 11.4377 18.8227 12.1917 18.678 12.9191C18.5333 13.6465 18.1761 14.3147 17.6517 14.8392C17.1272 15.3636 16.459 15.7208 15.7316 15.8654C15.0042 16.0101 14.2502 15.9359 13.565 15.652C12.8797 15.3682 12.2941 14.8876 11.882 14.2709C11.47 13.6542 11.25 12.9292 11.25 12.1875C11.25 11.695 11.347 11.2074 11.5355 10.7524C11.7239 10.2975 12.0001 9.88406 12.3484 9.53584C12.6966 9.18762 13.11 8.9114 13.565 8.72294C14.0199 8.53449 14.5076 8.4375 15 8.4375Z" fill="#046DBF"/>
</svg>
