<svg width="28" height="28" viewBox="0 0 28 28" fill="none" xmlns="http://www.w3.org/2000/svg">
<path d="M14 28C21.732 28 28 21.732 28 14C28 6.26801 21.732 0 14 0C6.26801 0 0 6.26801 0 14C0 21.732 6.26801 28 14 28Z" fill="url(#paint0_linear_82_776)"/>
<path d="M11.4331 20.4168C10.9795 20.4168 11.0566 20.2456 10.9002 19.8137L9.56641 15.4242L19.8331 9.3335" fill="#C8DAEA"/>
<path d="M11.4336 20.4168C11.7836 20.4168 11.9382 20.2568 12.1336 20.0668L14.0003 18.2517L11.6718 16.8477" fill="#A9C9DD"/>
<path d="M11.6712 16.8477L17.3132 21.0161C17.957 21.3713 18.4217 21.1874 18.582 20.4183L20.8786 9.59599C21.1138 8.6533 20.5193 8.22574 19.9034 8.50537L6.41786 13.7053C5.49735 14.0745 5.50272 14.5881 6.25007 14.8169L9.71075 15.8971L17.7226 10.8425C18.1008 10.6131 18.448 10.7364 18.163 10.9893" fill="url(#paint1_linear_82_776)"/>
<defs>
<linearGradient id="paint0_linear_82_776" x1="10.5014" y1="1.1676" x2="3.5014" y2="17.5" gradientUnits="userSpaceOnUse">
<stop stop-color="#37AEE2"/>
<stop offset="1" stop-color="#1E96C8"/>
</linearGradient>
<linearGradient id="paint1_linear_82_776" x1="12.2473" y1="14.8598" x2="13.7432" y2="19.6986" gradientUnits="userSpaceOnUse">
<stop stop-color="#EFF7FC"/>
<stop offset="1" stop-color="white"/>
</linearGradient>
</defs>
</svg>
