<svg width="28" height="28" viewBox="0 0 28 28" fill="none" xmlns="http://www.w3.org/2000/svg">
<path d="M14 28C21.732 28 28 21.732 28 14C28 6.26801 21.732 0 14 0C6.26801 0 0 6.26801 0 14C0 21.732 6.26801 28 14 28Z" fill="url(#paint0_linear_5045_135)"/>
<path d="M11.4331 20.4166C10.9795 20.4166 11.0566 20.2453 10.9002 19.8135L9.56641 15.4239L19.8331 9.33325" fill="#C8DAEA"/>
<path d="M11.4336 20.4166C11.7836 20.4166 11.9382 20.2565 12.1336 20.0666L14.0003 18.2515L11.6718 16.8474" fill="#A9C9DD"/>
<path d="M11.6712 16.8479L17.3132 21.0163C17.957 21.3716 18.4217 21.1876 18.582 20.4186L20.8786 9.59624C21.1138 8.65355 20.5193 8.22599 19.9034 8.50561L6.41786 13.7056C5.49735 14.0748 5.50272 14.5883 6.25007 14.8172L9.71075 15.8973L17.7226 10.8427C18.1008 10.6134 18.448 10.7367 18.163 10.9895" fill="url(#paint1_linear_5045_135)"/>
<defs>
<linearGradient id="paint0_linear_5045_135" x1="10.5014" y1="1.1676" x2="3.5014" y2="17.5" gradientUnits="userSpaceOnUse">
<stop stop-color="#37AEE2"/>
<stop offset="1" stop-color="#1E96C8"/>
</linearGradient>
<linearGradient id="paint1_linear_5045_135" x1="12.2473" y1="14.8601" x2="13.7432" y2="19.6988" gradientUnits="userSpaceOnUse">
<stop stop-color="#EFF7FC"/>
<stop offset="1" stop-color="white"/>
</linearGradient>
</defs>
</svg>
