<svg width="64" height="63" viewBox="0 0 64 63" fill="none" xmlns="http://www.w3.org/2000/svg">
<path d="M52.1387 9.84375H12.7637C11.6764 9.84375 10.7949 10.7252 10.7949 11.8125V51.1875C10.7949 52.2748 11.6764 53.1562 12.7637 53.1562H52.1387C53.226 53.1562 54.1074 52.2748 54.1074 51.1875V11.8125C54.1074 10.7252 53.226 9.84375 52.1387 9.84375Z" stroke="#099DBA" stroke-width="2" stroke-linecap="round" stroke-linejoin="round"/>
<path d="M44.2637 5.90625V13.7812" stroke="#099DBA" stroke-width="2" stroke-linecap="round" stroke-linejoin="round"/>
<path d="M20.6387 5.90625V13.7812" stroke="#099DBA" stroke-width="2" stroke-linecap="round" stroke-linejoin="round"/>
<path d="M10.7949 21.6562H54.1074" stroke="#099DBA" stroke-width="2" stroke-linecap="round" stroke-linejoin="round"/>
<path d="M23.5918 31.499H30.4824L26.5449 36.4209C27.1923 36.4209 27.8298 36.5805 28.4008 36.8857C28.9718 37.1908 29.4587 37.6321 29.8185 38.1703C30.1783 38.7086 30.3998 39.3273 30.4634 39.9716C30.527 40.6159 30.4307 41.2659 30.1832 41.8641C29.9356 42.4623 29.5443 42.9903 29.044 43.4012C28.5437 43.8121 27.9498 44.0933 27.3149 44.2199C26.6799 44.3465 26.0236 44.3146 25.4039 44.127C24.7843 43.9394 24.2205 43.6018 23.7624 43.1443" stroke="#099DBA" stroke-width="2" stroke-linecap="round" stroke-linejoin="round"/>
<path d="M36.3887 34.4521L40.3262 31.499V44.2959" stroke="#099DBA" stroke-width="2" stroke-linecap="round" stroke-linejoin="round"/>
</svg>
