<svg width="63" height="63" viewBox="0 0 63 63" fill="none" xmlns="http://www.w3.org/2000/svg">
<path d="M12.4746 45.508C14.6371 41.1562 15.759 36.3615 15.7519 31.5021C15.7497 29.1406 16.2795 26.809 17.3019 24.6804C18.3244 22.5517 19.8133 20.6808 21.6581 19.2065" stroke="#099DBA" stroke-width="2" stroke-linecap="round" stroke-linejoin="round"/>
<path d="M31.5018 31.5024C31.5142 39.5076 29.4834 47.3834 25.6016 54.3843" stroke="#099DBA" stroke-width="2" stroke-linecap="round" stroke-linejoin="round"/>
<path d="M23.627 31.5024C23.627 29.4139 24.4566 27.4108 25.9335 25.934C27.4103 24.4571 29.4134 23.6274 31.5019 23.6274C33.5905 23.6274 35.5936 24.4571 37.0704 25.934C38.5473 27.4108 39.3769 29.4139 39.3769 31.5024C39.3885 39.6195 37.6003 47.6382 34.1412 54.9813" stroke="#099DBA" stroke-width="2" stroke-linecap="round" stroke-linejoin="round"/>
<path d="M53.7876 45.2832C54.6804 40.7438 55.1289 36.1283 55.1266 31.502C55.1266 25.2362 52.6375 19.2271 48.207 14.7966C43.7764 10.366 37.7673 7.87695 31.5016 7.87695C25.2358 7.87695 19.2267 10.366 14.7962 14.7966C10.3656 19.2271 7.87656 25.2362 7.87656 31.502C7.87949 34.1843 7.42486 36.8475 6.53223 39.377" stroke="#099DBA" stroke-width="2" stroke-linecap="round" stroke-linejoin="round"/>
<path d="M22.8388 39.377C21.9983 43.5167 20.4928 47.4929 18.3809 51.1513" stroke="#099DBA" stroke-width="2" stroke-linecap="round" stroke-linejoin="round"/>
<path d="M29.5332 15.8743C31.75 15.597 34.0004 15.7942 36.1352 16.4526C38.2701 17.1111 40.2405 18.2159 41.916 19.6936C43.5915 21.1714 44.9337 22.9885 45.8536 25.0243C46.7735 27.0602 47.2502 29.2684 47.252 31.5024C47.2526 34.135 47.0898 36.765 46.7646 39.3773" stroke="#099DBA" stroke-width="2" stroke-linecap="round" stroke-linejoin="round"/>
<path d="M45.2672 47.252C44.8923 48.7086 44.4673 50.1441 43.9922 51.5586" stroke="#099DBA" stroke-width="2" stroke-linecap="round" stroke-linejoin="round"/>
</svg>
