<svg width="63" height="63" viewBox="0 0 63 63" fill="none" xmlns="http://www.w3.org/2000/svg">
<path d="M49.2188 17.7188C51.3934 17.7188 53.1562 15.9559 53.1562 13.7812C53.1562 11.6066 51.3934 9.84375 49.2188 9.84375C47.0441 9.84375 45.2812 11.6066 45.2812 13.7812C45.2812 15.9559 47.0441 17.7188 49.2188 17.7188Z" stroke="#099DBA" stroke-width="2" stroke-linecap="round" stroke-linejoin="round"/>
<path d="M49.2188 9.84375V6.89062" stroke="#099DBA" stroke-width="2" stroke-linecap="round" stroke-linejoin="round"/>
<path d="M45.8085 11.8125L43.251 10.3359" stroke="#099DBA" stroke-width="2" stroke-linecap="round" stroke-linejoin="round"/>
<path d="M45.8085 15.75L43.251 17.2266" stroke="#099DBA" stroke-width="2" stroke-linecap="round" stroke-linejoin="round"/>
<path d="M49.2188 17.7188V20.6719" stroke="#099DBA" stroke-width="2" stroke-linecap="round" stroke-linejoin="round"/>
<path d="M52.6289 15.75L55.1864 17.2266" stroke="#099DBA" stroke-width="2" stroke-linecap="round" stroke-linejoin="round"/>
<path d="M52.6289 11.8125L55.1864 10.3359" stroke="#099DBA" stroke-width="2" stroke-linecap="round" stroke-linejoin="round"/>
<path d="M7.62598 53.1539C10.0465 48.9644 13.5268 45.4855 17.7175 43.0668C21.9082 40.6482 26.6615 39.375 31.5001 39.375C36.3386 39.375 41.0919 40.6484 45.2825 43.0671C49.4731 45.4859 52.9535 48.9648 55.3739 53.1544" stroke="#099DBA" stroke-width="2" stroke-linecap="round" stroke-linejoin="round"/>
<path d="M45.9272 29.9519C44.7489 32.6334 42.8459 34.933 40.4322 36.5922C38.0186 38.2514 35.1899 39.2044 32.2643 39.344C29.3387 39.4836 26.4321 38.8043 23.8714 37.3824C21.3108 35.9606 19.1975 33.8526 17.7692 31.2955C16.3409 28.7384 15.6543 25.8336 15.7866 22.9076C15.9188 19.9817 16.8647 17.1506 18.5178 14.7328C20.1709 12.3149 22.4657 10.4062 25.1442 9.22115C27.8227 8.03611 30.7787 7.62176 33.6798 8.0247" stroke="#099DBA" stroke-width="2" stroke-linecap="round" stroke-linejoin="round"/>
</svg>
