<?xml version="1.0" encoding="utf-8"?>
<svg viewBox="0 0 100 100" xmlns="http://www.w3.org/2000/svg" xmlns:bx="https://boxy-svg.com">
  <defs>
    <linearGradient id="paint0_linear_82_315" x1="46.3272" y1="6.56358" x2="48.2918" y2="88.5618" gradientUnits="userSpaceOnUse" gradientTransform="matrix(1, 0, 0, 1, 1.160928, 1.141181)">
      <stop stop-color="#38E0DE"/>
      <stop offset="1" stop-color="#0699B8"/>
    </linearGradient>
  </defs>
  <path d="M 48.47 91.443 C 72.478 91.443 91.94 72.092 91.94 48.221 C 91.94 24.351 72.478 5 48.47 5 C 24.462 5 5 24.351 5 48.221 C 5 72.092 24.462 91.443 48.47 91.443 Z" fill="url(#paint0_linear_82_315)" bx:origin="5.688153 0.523631"/>
  <path d="M 52.145 32.572 C 51.986 32.03 51.818 31.489 51.623 30.963 C 51.529 30.7 51.429 30.439 51.318 30.187 C 51.206 29.939 51.083 29.692 50.936 29.495 C 50.865 29.4 50.78 29.317 50.726 29.297 C 50.699 29.285 50.696 29.294 50.699 29.297 L 50.699 29.299 L 50.682 29.302 C 50.676 29.304 50.671 29.306 50.672 29.307 C 50.672 29.309 50.677 29.311 50.674 29.312 C 50.657 29.327 50.584 29.425 50.534 29.529 C 50.48 29.635 50.429 29.756 50.382 29.878 C 50.196 30.377 50.054 30.918 49.919 31.457 C 49.645 32.537 49.41 33.637 49.193 34.739 C 48.971 35.842 48.747 36.944 48.541 38.052 L 48.231 39.715 L 47.911 41.378 C 47.802 41.934 47.696 42.491 47.578 43.052 C 47.46 43.615 47.338 44.177 47.172 44.76 C 47.09 45.052 46.993 45.348 46.853 45.662 C 46.786 45.818 46.701 45.983 46.595 46.152 C 46.488 46.32 46.348 46.505 46.137 46.681 C 45.931 46.856 45.62 47.007 45.311 47.044 C 45.004 47.086 44.696 47.034 44.463 46.943 C 43.99 46.757 43.705 46.495 43.453 46.251 C 42.965 45.754 42.629 45.247 42.306 44.74 C 41.99 44.231 41.706 43.725 41.436 43.213 C 40.365 41.159 39.475 39.018 38.781 36.82 C 38.107 34.614 37.575 32.369 37.291 30.083 C 37.217 29.512 37.158 28.939 37.11 28.363 C 37.088 28.075 37.07 27.787 37.056 27.492 C 37.048 27.198 37.044 26.916 37.044 26.628 C 37.043 25.483 37.085 24.338 37.174 23.199 C 37.375 20.923 37.744 18.666 38.352 16.478 L 38.451 16.496 C 38.034 18.715 37.788 20.964 37.707 23.217 C 37.642 25.471 37.691 27.735 38.073 29.961 C 38.433 32.188 38.977 34.383 39.683 36.526 C 40.392 38.667 41.267 40.755 42.33 42.745 C 42.593 43.243 42.862 43.739 43.157 44.218 C 43.453 44.695 43.767 45.165 44.154 45.561 C 44.348 45.756 44.563 45.934 44.808 46.03 C 45.049 46.125 45.323 46.1 45.519 45.931 C 45.718 45.768 45.853 45.519 45.968 45.271 C 46.083 45.019 46.172 44.753 46.255 44.486 C 46.574 43.41 46.797 42.3 47.039 41.198 C 47.274 40.093 47.51 38.988 47.755 37.884 C 48 36.781 48.253 35.679 48.522 34.581 C 48.791 33.482 49.073 32.387 49.402 31.304 C 49.569 30.763 49.743 30.223 49.973 29.7 C 50.032 29.571 50.093 29.44 50.169 29.316 C 50.245 29.193 50.324 29.065 50.461 28.975 C 50.532 28.929 50.617 28.913 50.694 28.911 C 50.779 28.911 50.861 28.939 50.926 28.981 C 51.059 29.067 51.149 29.19 51.228 29.311 C 51.382 29.557 51.492 29.823 51.589 30.09 C 51.687 30.357 51.77 30.629 51.848 30.901 C 52.002 31.447 52.127 31.999 52.241 32.552 L 52.145 32.572 Z" fill="white" bx:origin="30.432544 1.10482"/>
  <path d="M 36.551 15.946 C 37.323 15.286 38.217 14.765 39.166 14.352 C 39.644 14.152 40.137 13.984 40.641 13.841 C 41.146 13.698 41.673 13.611 42.2 13.547 C 42.463 13.517 42.728 13.495 42.994 13.483 C 43.127 13.475 43.259 13.475 43.39 13.475 C 43.522 13.475 43.654 13.473 43.786 13.478 C 44.313 13.485 44.833 13.539 45.35 13.601 C 45.608 13.633 45.865 13.673 46.118 13.719 C 46.373 13.761 46.625 13.813 46.879 13.863 C 47.382 13.972 47.878 14.097 48.372 14.231 C 50.34 14.783 52.243 15.551 54.02 16.535 C 55.804 17.504 57.471 18.678 58.93 20.074 L 58.875 20.158 C 58.044 19.615 57.194 19.1 56.328 18.618 C 55.463 18.131 54.579 17.677 53.679 17.259 C 51.88 16.423 50.012 15.729 48.1 15.202 C 47.145 14.933 46.178 14.704 45.2 14.545 C 44.222 14.385 43.23 14.303 42.244 14.348 C 41.257 14.394 40.277 14.585 39.331 14.872 C 38.382 15.155 37.468 15.549 36.604 16.033 L 36.551 15.946 Z" fill="white" bx:origin="20.68801 5.504633"/>
  <path d="M 54.189 20.305 C 53.948 20.498 53.671 20.688 53.314 20.707 C 53.137 20.715 52.955 20.653 52.803 20.559 C 52.651 20.463 52.527 20.336 52.423 20.2 C 52.211 19.926 52.08 19.613 51.978 19.296 C 51.879 18.979 51.816 18.651 51.788 18.319 C 51.774 18.152 51.786 17.986 51.803 17.821 C 51.821 17.657 51.84 17.491 51.87 17.328 C 51.928 17 52.022 16.676 52.152 16.364 C 52.286 16.048 52.45 15.764 52.634 15.49 C 52.82 15.217 53.026 14.956 53.272 14.718 C 53.521 14.483 53.808 14.256 54.196 14.14 C 54.292 14.111 54.397 14.095 54.502 14.088 C 54.607 14.085 54.722 14.091 54.82 14.113 C 55.021 14.153 55.213 14.241 55.372 14.353 C 55.694 14.58 55.901 14.881 56.068 15.178 C 56.232 15.477 56.352 15.786 56.453 16.095 C 56.652 16.715 56.774 17.341 56.867 17.968 C 56.958 18.594 57.019 19.222 57.059 19.849 C 57.14 21.101 57.142 22.359 57.112 23.602 C 57.088 24.848 57.034 26.101 56.904 27.351 C 56.774 28.599 56.575 29.845 56.27 31.069 C 55.867 32.268 55.367 33.434 54.716 34.505 C 55.12 33.323 55.417 32.122 55.613 30.908 C 55.911 29.72 56.103 28.505 56.232 27.282 C 56.358 26.058 56.412 24.826 56.436 23.589 C 56.468 22.349 56.465 21.12 56.385 19.892 C 56.346 19.279 56.287 18.67 56.2 18.065 C 56.11 17.464 55.992 16.866 55.811 16.301 C 55.72 16.021 55.612 15.747 55.477 15.5 C 55.341 15.257 55.176 15.035 54.985 14.903 C 54.89 14.835 54.791 14.792 54.686 14.77 C 54.583 14.748 54.492 14.753 54.384 14.785 C 54.169 14.845 53.943 15.007 53.744 15.2 C 53.345 15.591 53.002 16.107 52.776 16.622 C 52.554 17.146 52.461 17.731 52.468 18.308 C 52.431 18.883 52.485 19.492 52.735 20.001 C 52.86 20.252 53.053 20.468 53.326 20.512 C 53.603 20.559 53.914 20.448 54.189 20.305 Z" fill="white" bx:origin="83.723309 1.771841"/>
  <path d="M 31.276 52.776 L 31.882 52.929 C 31.755 53.424 31.526 53.802 31.196 54.063 C 30.865 54.323 30.462 54.452 29.984 54.452 C 29.489 54.452 29.087 54.351 28.778 54.152 C 28.468 53.952 28.232 53.661 28.07 53.282 C 27.908 52.902 27.827 52.494 27.827 52.059 C 27.827 51.584 27.918 51.171 28.1 50.816 C 28.283 50.463 28.543 50.195 28.879 50.01 C 29.215 49.827 29.587 49.735 29.99 49.735 C 30.45 49.735 30.835 49.85 31.147 50.082 C 31.46 50.314 31.678 50.642 31.801 51.061 L 31.203 51.201 C 31.097 50.868 30.943 50.628 30.74 50.477 C 30.538 50.326 30.284 50.25 29.977 50.25 C 29.624 50.25 29.33 50.334 29.093 50.502 C 28.857 50.67 28.69 50.895 28.595 51.179 C 28.501 51.463 28.452 51.753 28.452 52.054 C 28.452 52.442 28.509 52.779 28.622 53.07 C 28.735 53.359 28.913 53.576 29.153 53.718 C 29.392 53.861 29.653 53.933 29.931 53.933 C 30.271 53.933 30.56 53.836 30.794 53.641 C 31.033 53.45 31.193 53.161 31.276 52.776 Z" fill="white" bx:origin="116.325762 0.112198"/>
  <path d="M 32.255 51.073 L 34.955 51.073 L 34.955 51.537 L 33.885 51.537 L 33.885 54.376 L 33.326 54.376 L 33.326 51.537 L 32.257 51.537 L 32.257 51.073 L 32.255 51.073 Z" fill="white" bx:origin="173.064269 -0.244858"/>
  <path d="M 35.211 52.724 C 35.211 52.113 35.382 51.659 35.725 51.366 C 36.01 51.12 36.358 50.998 36.77 50.998 C 37.226 50.998 37.6 51.147 37.89 51.445 C 38.181 51.742 38.324 52.153 38.324 52.677 C 38.324 53.102 38.26 53.436 38.132 53.68 C 38.003 53.923 37.818 54.113 37.573 54.248 C 37.328 54.382 37.061 54.449 36.77 54.449 C 36.306 54.449 35.929 54.301 35.642 54.004 C 35.353 53.708 35.211 53.282 35.211 52.724 Z M 35.789 52.724 C 35.789 53.148 35.882 53.463 36.068 53.675 C 36.254 53.885 36.487 53.991 36.769 53.991 C 37.047 53.991 37.281 53.885 37.466 53.673 C 37.652 53.462 37.745 53.139 37.745 52.706 C 37.745 52.298 37.652 51.989 37.465 51.777 C 37.279 51.567 37.046 51.461 36.769 51.461 C 36.487 51.461 36.254 51.565 36.068 51.775 C 35.882 51.985 35.789 52.301 35.789 52.724 Z" fill="white" bx:origin="149.154059 -0.212624"/>
  <path d="M 38.998 51.073 L 39.875 51.073 L 40.748 53.716 L 41.718 51.073 L 42.529 51.073 L 42.529 54.376 L 41.966 54.376 L 41.966 51.718 L 40.985 54.376 L 40.481 54.376 L 39.552 51.59 L 39.552 54.376 L 39.002 54.376 L 39.002 51.073 L 38.998 51.073 Z" fill="white" bx:origin="130.424874 -0.244858"/>
  <path d="M 45.556 53.969 C 45.348 54.145 45.147 54.269 44.954 54.341 C 44.762 54.414 44.554 54.451 44.333 54.451 C 43.968 54.451 43.688 54.362 43.492 54.185 C 43.296 54.007 43.198 53.782 43.198 53.505 C 43.198 53.344 43.235 53.196 43.309 53.062 C 43.383 52.927 43.48 52.82 43.6 52.739 C 43.72 52.659 43.855 52.596 44.005 52.556 C 44.115 52.528 44.282 52.499 44.505 52.472 C 44.959 52.418 45.294 52.355 45.508 52.279 C 45.51 52.202 45.512 52.153 45.512 52.133 C 45.512 51.904 45.459 51.745 45.351 51.651 C 45.208 51.525 44.993 51.461 44.709 51.461 C 44.444 51.461 44.248 51.506 44.123 51.599 C 43.997 51.691 43.904 51.854 43.843 52.089 L 43.292 52.015 C 43.343 51.78 43.424 51.592 43.539 51.448 C 43.654 51.303 43.819 51.192 44.035 51.115 C 44.252 51.038 44.503 50.999 44.789 50.999 C 45.073 50.999 45.302 51.033 45.48 51.098 C 45.657 51.166 45.787 51.248 45.872 51.349 C 45.954 51.449 46.013 51.575 46.047 51.73 C 46.066 51.826 46.076 51.997 46.076 52.245 L 46.076 52.991 C 46.076 53.512 46.088 53.841 46.111 53.979 C 46.135 54.116 46.182 54.249 46.253 54.375 L 45.665 54.375 C 45.61 54.259 45.573 54.123 45.556 53.969 Z M 45.508 52.717 C 45.304 52.8 44.997 52.87 44.589 52.929 C 44.358 52.963 44.194 52.999 44.098 53.041 C 44.002 53.083 43.927 53.144 43.877 53.223 C 43.824 53.303 43.799 53.391 43.799 53.488 C 43.799 53.638 43.856 53.762 43.97 53.861 C 44.083 53.96 44.25 54.011 44.468 54.011 C 44.684 54.011 44.878 53.964 45.047 53.869 C 45.216 53.775 45.339 53.646 45.419 53.482 C 45.48 53.356 45.51 53.169 45.51 52.922 L 45.51 52.717 L 45.508 52.717 Z" fill="white" bx:origin="149.371508 -0.212852"/>
  <path d="M 46.506 51.073 L 49.205 51.073 L 49.205 51.537 L 48.136 51.537 L 48.136 54.376 L 47.577 54.376 L 47.577 51.537 L 46.508 51.537 L 46.508 51.073 L 46.506 51.073 Z" fill="white" bx:origin="167.84801 -0.244858"/>
  <path d="M 49.462 52.724 C 49.462 52.113 49.633 51.659 49.976 51.366 C 50.261 51.12 50.609 50.998 51.021 50.998 C 51.477 50.998 51.851 51.147 52.141 51.445 C 52.432 51.742 52.575 52.153 52.575 52.677 C 52.575 53.102 52.511 53.436 52.383 53.68 C 52.254 53.923 52.069 54.113 51.824 54.248 C 51.579 54.382 51.312 54.449 51.021 54.449 C 50.557 54.449 50.18 54.301 49.893 54.004 C 49.606 53.707 49.462 53.282 49.462 52.724 Z M 50.04 52.724 C 50.04 53.148 50.133 53.463 50.319 53.675 C 50.505 53.886 50.738 53.991 51.02 53.991 C 51.298 53.991 51.531 53.885 51.717 53.673 C 51.903 53.462 51.996 53.139 51.996 52.706 C 51.996 52.298 51.903 51.989 51.716 51.777 C 51.53 51.567 51.297 51.461 51.02 51.461 C 50.738 51.461 50.505 51.565 50.319 51.775 C 50.133 51.985 50.04 52.301 50.04 52.724 Z" fill="white" bx:origin="144.576341 -0.212624"/>
  <path d="M 53.37 51.073 L 55.985 51.073 L 55.985 54.376 L 55.424 54.376 L 55.424 51.537 L 53.932 51.537 L 53.932 53.182 C 53.932 53.565 53.92 53.819 53.895 53.942 C 53.87 54.064 53.801 54.17 53.689 54.262 C 53.578 54.355 53.414 54.398 53.201 54.398 C 53.069 54.398 52.919 54.39 52.746 54.373 L 52.746 53.906 L 52.993 53.906 C 53.11 53.906 53.194 53.894 53.243 53.871 C 53.294 53.847 53.326 53.809 53.343 53.757 C 53.36 53.705 53.368 53.537 53.368 53.25 L 53.368 51.073 L 53.37 51.073 Z" fill="white" bx:origin="137.938158 -0.243238"/>
  <path d="M 56.694 52.724 C 56.694 52.113 56.864 51.659 57.207 51.366 C 57.493 51.12 57.841 50.998 58.253 50.998 C 58.709 50.998 59.082 51.147 59.373 51.445 C 59.663 51.742 59.807 52.153 59.807 52.677 C 59.807 53.102 59.743 53.436 59.614 53.68 C 59.486 53.923 59.3 54.113 59.055 54.248 C 58.81 54.382 58.543 54.449 58.253 54.449 C 57.788 54.449 57.412 54.301 57.124 54.004 C 56.837 53.707 56.694 53.282 56.694 52.724 Z M 57.273 52.724 C 57.273 53.148 57.366 53.463 57.552 53.675 C 57.738 53.886 57.971 53.991 58.253 53.991 C 58.532 53.991 58.765 53.885 58.95 53.673 C 59.136 53.462 59.229 53.139 59.229 52.706 C 59.229 52.298 59.136 51.989 58.949 51.777 C 58.763 51.567 58.53 51.461 58.253 51.461 C 57.971 51.461 57.738 51.565 57.552 51.775 C 57.366 51.985 57.273 52.301 57.273 52.724 Z" fill="white" bx:origin="142.253179 -0.212624"/>
  <path d="M 60.469 51.073 L 62.38 51.073 L 62.38 51.537 L 61.032 51.537 L 61.032 54.376 L 60.469 54.376 L 60.469 51.073 Z" fill="white" bx:origin="229.753616 -0.244858"/>
  <path d="M 68.998 51.073 L 68.998 54.376 L 68.439 54.376 L 68.439 53.088 L 68.113 53.088 C 67.915 53.088 67.766 53.114 67.67 53.164 C 67.574 53.214 67.432 53.377 67.246 53.654 L 66.755 54.376 L 66.057 54.376 L 66.663 53.486 C 66.849 53.214 67.033 53.061 67.217 53.026 C 66.897 52.983 66.658 52.868 66.503 52.68 C 66.348 52.494 66.27 52.279 66.27 52.037 C 66.27 51.751 66.371 51.518 66.576 51.34 C 66.778 51.162 67.074 51.073 67.459 51.073 L 68.998 51.073 Z M 68.437 51.535 L 67.636 51.535 C 67.3 51.535 67.084 51.587 66.988 51.691 C 66.891 51.795 66.842 51.916 66.842 52.055 C 66.842 52.252 66.913 52.396 67.057 52.489 C 67.199 52.581 67.452 52.626 67.815 52.626 L 68.439 52.626 L 68.439 51.535 L 68.437 51.535 Z" fill="white" bx:origin="147.388889 -0.244858"/>
  <text style="fill: rgb(51, 51, 51); font-family: Arial, sans-serif; font-size: 3.3px; font-weight: 700; white-space: pre;" transform="matrix(3.425292, -0.001306, 0.001476, 3.86896, -53.589931, -149.595612)" bx:origin="8.430669 -0.121545"><tspan style="fill: rgb(255, 255, 255);" x="21.793" y="55.477">Сімейний </tspan><tspan x="21.793" dy="1em">​</tspan><tspan>    </tspan><tspan style="fill: rgb(255, 255, 255);">лікар</tspan></text>
  <text style="white-space: pre; fill: rgb(51, 51, 51); font-family: Arial, sans-serif; font-size: 3.3px;" x="42.224" y="59.968" bx:origin="498.68898 -1.741098"> </text>
  <text style="white-space: pre; fill: rgb(51, 51, 51); font-family: Arial, sans-serif; font-size: 3.3px;" x="14.46" y="94.995" bx:origin="528.965555 -11.119792"> </text>
  <text style="white-space: pre; fill: rgb(51, 51, 51); font-family: Arial, sans-serif; font-size: 3.3px;" x="63.896" y="52.471" bx:origin="475.055712 0.266269"> </text>
  <text style="fill: rgb(255, 255, 255); font-family: Arial, sans-serif; font-size: 3.3px; white-space: pre;" x="59.714" y="49.341" transform="matrix(2.369557, 0, 0, 1.388057, -78.350548, -14.168893)" bx:origin="223.424451 0.0263">і</text>
</svg>