<svg width="21" height="22" viewBox="0 0 21 22" fill="none" xmlns="http://www.w3.org/2000/svg">
<path d="M10.1341 11.6875C11.5332 11.6875 12.6675 10.4563 12.6675 8.9375C12.6675 7.41872 11.5332 6.1875 10.1341 6.1875C8.73486 6.1875 7.60059 7.41872 7.60059 8.9375C7.60059 10.4563 8.73486 11.6875 10.1341 11.6875Z" stroke="#BDF8F9" stroke-width="2" stroke-linecap="round" stroke-linejoin="round"/>
<path d="M16.4671 8.9375C16.4671 15.125 10.1335 19.9375 10.1335 19.9375C10.1335 19.9375 3.7998 15.125 3.7998 8.9375C3.7998 7.11414 4.4671 5.36545 5.65489 4.07614C6.84268 2.78683 8.45367 2.0625 10.1335 2.0625C11.8133 2.0625 13.4242 2.78683 14.612 4.07614C15.7998 5.36545 16.4671 7.11414 16.4671 8.9375V8.9375Z" stroke="#BDF8F9" stroke-width="2" stroke-linecap="round" stroke-linejoin="round"/>
</svg>
