<svg width="28" height="28" viewBox="0 0 28 28" fill="none" xmlns="http://www.w3.org/2000/svg">
<path d="M14 28C21.732 28 28 21.732 28 14C28 6.26801 21.732 0 14 0C6.26801 0 0 6.26801 0 14C0 21.732 6.26801 28 14 28Z" fill="#25D366"/>
<path fill-rule="evenodd" clip-rule="evenodd" d="M14.4612 21.7889H14.4578C13.0645 21.7885 11.6955 21.4389 10.4795 20.7756L6.06641 21.9333L7.24743 17.6195C6.51892 16.3569 6.13558 14.9248 6.1362 13.4576C6.13803 8.86762 9.87255 5.1333 14.4611 5.1333C16.6881 5.13426 18.7783 6.00122 20.35 7.57479C21.9218 9.14828 22.7869 11.2398 22.786 13.4642C22.7841 18.0531 19.0511 21.7871 14.4612 21.7889ZM10.684 19.2686L10.9367 19.4185C11.999 20.0489 13.2168 20.3825 14.4584 20.383H14.4612C18.2749 20.383 21.3789 17.279 21.3804 13.4637C21.3811 11.6148 20.6621 9.87643 19.3557 8.56854C18.0493 7.26065 16.3121 6.54003 14.4639 6.53939C10.6473 6.53939 7.54327 9.64311 7.54176 13.4581C7.54122 14.7655 7.90704 16.0388 8.59967 17.1404L8.76419 17.4022L8.06519 19.9555L10.684 19.2686ZM18.3703 15.2565C18.5154 15.3266 18.6134 15.374 18.6552 15.4438C18.7072 15.5305 18.7072 15.947 18.5339 16.433C18.3605 16.9188 17.5295 17.3623 17.1298 17.422C16.7715 17.4756 16.318 17.4979 15.8197 17.3396C15.5176 17.2437 15.1302 17.1157 14.6339 16.9014C12.6838 16.0594 11.366 14.1694 11.1169 13.8122C11.0995 13.7871 11.0873 13.7696 11.0805 13.7605L11.0788 13.7583C10.9687 13.6114 10.2311 12.6273 10.2311 11.6088C10.2311 10.6506 10.7018 10.1484 10.9184 9.91723C10.9333 9.90139 10.9469 9.88682 10.9591 9.87347C11.1498 9.66522 11.3752 9.61316 11.5138 9.61316C11.6525 9.61316 11.7913 9.61444 11.9125 9.62053C11.9275 9.62128 11.943 9.62119 11.9591 9.62109C12.0803 9.62038 12.2314 9.61949 12.3805 9.97759C12.4379 10.1154 12.5218 10.3197 12.6103 10.5352C12.7893 10.971 12.987 11.4524 13.0218 11.5221C13.0739 11.6262 13.1085 11.7476 13.0392 11.8865C13.0288 11.9073 13.0191 11.927 13.0099 11.9458C12.9579 12.0521 12.9196 12.1303 12.8312 12.2335C12.7964 12.2741 12.7605 12.3178 12.7246 12.3616C12.653 12.4487 12.5815 12.5359 12.5192 12.5979C12.415 12.7017 12.3066 12.8142 12.428 13.0224C12.5493 13.2307 12.9668 13.9118 13.5851 14.4634C14.2499 15.0563 14.8276 15.3069 15.1204 15.4339C15.1776 15.4587 15.2239 15.4788 15.2579 15.4958C15.4658 15.6 15.5872 15.5826 15.7085 15.4438C15.8299 15.305 16.2285 14.8364 16.3672 14.6282C16.5058 14.42 16.6445 14.4547 16.8352 14.5241C17.0259 14.5935 18.0485 15.0967 18.2566 15.2008C18.2972 15.2211 18.3351 15.2395 18.3703 15.2565Z" fill="#FDFDFD"/>
</svg>
